<svg width="25" height="25" viewBox="0 0 25 25" fill="none" xmlns="http://www.w3.org/2000/svg">
<path d="M8.56755 4.06989C11.1355 4.06989 12.6176 6.22223 12.6176 6.22223C12.6176 6.22223 14.1026 4.06989 16.6676 4.06989C19.3226 4.06989 21.6176 6.13988 21.6176 9.01989C21.6176 13.2504 15.178 17.6896 12.9827 19.6302C12.7758 19.8131 12.4593 19.8131 12.2524 19.6302C10.0581 17.6908 3.61755 13.2502 3.61755 9.01989C3.61755 6.13988 5.91255 4.06989 8.56755 4.06989Z" fill="white" fill-opacity="0.6"/>
<path d="M3.61755 8.93475C3.61755 6.27286 5.76772 4.06989 8.48241 4.06989C10.6044 4.06989 11.9768 5.42865 12.6176 6.25662C13.2584 5.42865 14.6308 4.06989 16.7527 4.06989C19.4682 4.06989 21.6176 6.27291 21.6176 8.93475C21.6176 10.0998 21.1504 11.2561 20.471 12.3349C19.7892 13.4175 18.8696 14.4602 17.9076 15.4076C16.5743 16.7207 15.0933 17.9086 14.031 18.7606C13.5794 19.1228 13.2035 19.4243 12.9469 19.6489C12.7583 19.8138 12.4768 19.8138 12.2883 19.6489C12.0316 19.4243 11.6557 19.1228 11.2041 18.7606C10.1419 17.9086 8.66081 16.7207 7.32752 15.4076C6.36557 14.4602 5.44591 13.4175 4.76414 12.3349C4.08479 11.2561 3.61755 10.0998 3.61755 8.93475ZM8.48241 5.06989C6.32684 5.06989 4.61755 6.81827 4.61755 8.93475C4.61755 9.83732 4.98308 10.806 5.61032 11.802C6.23514 12.7941 7.09588 13.7759 8.0292 14.6951C9.32788 15.9741 10.7018 17.0749 11.7515 17.916C12.0748 18.1751 12.3674 18.4095 12.6176 18.6169C12.8677 18.4095 13.1603 18.1751 13.4836 17.916C14.5334 17.0749 15.9073 15.9741 17.2059 14.6951C18.1393 13.7759 19 12.7941 19.6248 11.802C20.2521 10.806 20.6176 9.83732 20.6176 8.93475C20.6176 6.81822 18.909 5.06989 16.7527 5.06989C14.6582 5.06989 13.4357 6.772 13.1209 7.28017C12.8903 7.65239 12.3448 7.65238 12.1143 7.28016C11.7995 6.77199 10.577 5.06989 8.48241 5.06989Z" fill="#1F2026"/>
</svg>
