<svg width="40" height="40" viewBox="0 0 40 40" fill="none" xmlns="http://www.w3.org/2000/svg">
<path d="M0 16C0 10.3995 0 7.59921 1.08993 5.46009C2.04867 3.57847 3.57847 2.04867 5.46009 1.08993C7.59921 0 10.3995 0 16 0H24C29.6005 0 32.4008 0 34.5399 1.08993C36.4215 2.04867 37.9513 3.57847 38.9101 5.46009C40 7.59921 40 10.3995 40 16V24C40 29.6005 40 32.4008 38.9101 34.5399C37.9513 36.4215 36.4215 37.9513 34.5399 38.9101C32.4008 40 29.6005 40 24 40H16C10.3995 40 7.59921 40 5.46009 38.9101C3.57847 37.9513 2.04867 36.4215 1.08993 34.5399C0 32.4008 0 29.6005 0 24V16Z" fill="#EBFAEE"/>
<path d="M28.7753 14.4736C29.0682 14.7665 29.0682 15.2413 28.7753 15.5342L17.5297 26.7798C17.2369 27.0727 16.762 27.0727 16.4691 26.7798L11.2241 21.5348C10.9312 21.2419 10.9312 20.767 11.2241 20.4741C11.517 20.1813 11.9918 20.1813 12.2847 20.4741L16.9994 25.1888L27.7147 14.4736C28.0076 14.1807 28.4824 14.1807 28.7753 14.4736Z" fill="#1F2026"/>
</svg>
